<?xml version="1.0" encoding="UTF-8"?>
<!DOCTYPE svg PUBLIC "-//W3C//DTD SVG 1.1//EN" "http://www.w3.org/Graphics/SVG/1.1/DTD/svg11.dtd">
<svg xmlns="http://www.w3.org/2000/svg" version="1.1" width="512px" height="512px" style="shape-rendering:geometricPrecision; text-rendering:geometricPrecision; image-rendering:optimizeQuality; fill-rule:evenodd; clip-rule:evenodd" xmlns:xlink="http://www.w3.org/1999/xlink">
<g><path style="opacity:0.997" fill="#21cfc2" d="M 232.5,-0.5 C 247.833,-0.5 263.167,-0.5 278.5,-0.5C 368.144,10.3879 435.644,54.7213 481,132.5C 497.695,163.971 507.861,197.304 511.5,232.5C 511.5,247.833 511.5,263.167 511.5,278.5C 500.612,368.144 456.279,435.644 378.5,481C 347.029,497.695 313.696,507.861 278.5,511.5C 263.167,511.5 247.833,511.5 232.5,511.5C 176.06,505.605 126.727,483.938 84.5,446.5C 100.833,446.5 117.167,446.5 133.5,446.5C 133.5,445.167 133.5,443.833 133.5,442.5C 138.167,442.5 142.833,442.5 147.5,442.5C 147.5,440.5 147.5,438.5 147.5,436.5C 153.206,436.171 158.872,436.505 164.5,437.5C 168.085,441.632 172.419,444.799 177.5,447C 184.319,449.414 191.319,451.081 198.5,452C 213.163,452.5 227.83,452.667 242.5,452.5C 242.335,456.182 242.501,459.848 243,463.5C 244.167,464.667 245.333,465.833 246.5,467C 256.167,467.667 265.833,467.667 275.5,467C 277.667,466.167 279.167,464.667 280,462.5C 280.499,458.179 280.666,453.846 280.5,449.5C 285.156,448.891 289.823,447.891 294.5,446.5C 300.327,441.522 302.494,435.189 301,427.5C 298.179,422.167 293.679,419.5 287.5,419.5C 292.069,418.015 296.736,416.848 301.5,416C 304.745,414.019 306.911,411.186 308,407.5C 309.11,401.574 308.444,395.908 306,390.5C 305.097,389.299 303.931,388.465 302.5,388C 298.097,387.936 293.764,387.769 289.5,387.5C 289.709,386.914 290.043,386.414 290.5,386C 297.036,385.497 303.369,384.163 309.5,382C 315.167,376.681 317.001,370.181 315,362.5C 313.623,360.246 312.123,358.08 310.5,356C 305.628,354.612 300.628,354.112 295.5,354.5C 295.5,353.5 295.5,352.5 295.5,351.5C 309.544,351.463 315.044,344.463 312,330.5C 310.558,326.725 308.058,323.892 304.5,322C 296.571,320.637 288.571,320.137 280.5,320.5C 280.5,317.167 280.5,313.833 280.5,310.5C 280.666,305.821 280.499,301.155 280,296.5C 277.409,292.952 273.909,291.618 269.5,292.5C 269.5,284.167 269.5,275.833 269.5,267.5C 326.941,260.558 362.108,228.892 375,172.5C 381.576,121.166 363.41,81.3326 320.5,53C 281.123,32.355 241.789,32.355 202.5,53C 155.849,84.1604 138.349,127.327 150,182.5C 162.404,223.904 189.237,251.07 230.5,264C 238.059,265.903 245.725,267.07 253.5,267.5C 253.5,275.833 253.5,284.167 253.5,292.5C 249.599,291.857 246.266,292.857 243.5,295.5C 242.552,300.435 242.219,305.435 242.5,310.5C 224.789,309.208 208.123,312.708 192.5,321C 181.24,329.762 171.906,340.262 164.5,352.5C 158.202,353.496 151.868,353.83 145.5,353.5C 145.5,351.833 145.5,350.167 145.5,348.5C 141.167,348.5 136.833,348.5 132.5,348.5C 132.5,347.167 132.5,345.833 132.5,344.5C 91.4924,339.233 50.4924,333.899 9.5,328.5C 4.73259,311.996 1.39926,295.33 -0.5,278.5C -0.5,263.167 -0.5,247.833 -0.5,232.5C 10.3875,142.857 54.7208,75.3573 132.5,30C 163.971,13.3053 197.304,3.1386 232.5,-0.5 Z"/></g>
<g><path style="opacity:1" fill="#656766" d="M 269.5,292.5 C 264.167,292.5 258.833,292.5 253.5,292.5C 253.5,284.167 253.5,275.833 253.5,267.5C 245.725,267.07 238.059,265.903 230.5,264C 189.237,251.07 162.404,223.904 150,182.5C 138.349,127.327 155.849,84.1604 202.5,53C 241.789,32.355 281.123,32.355 320.5,53C 363.41,81.3326 381.576,121.166 375,172.5C 362.108,228.892 326.941,260.558 269.5,267.5C 269.5,275.833 269.5,284.167 269.5,292.5 Z"/></g>
<g><path style="opacity:1" fill="#27d0c3" d="M 226.5,246.5 C 232.706,248.469 239.039,249.636 245.5,250C 198.09,233.755 173.423,200.589 171.5,150.5C 175.302,102.528 199.969,70.6945 245.5,55C 240.114,55.2422 234.781,56.0755 229.5,57.5C 270.939,44.8271 306.772,54.1604 337,85.5C 366.234,121.827 370.234,160.827 349,202.5C 326.207,238.482 293.374,255.315 250.5,253C 242.038,252.054 234.038,249.887 226.5,246.5 Z"/></g>
<g><path style="opacity:1" fill="#e2eded" d="M 226.5,246.5 C 196.659,235.326 176.659,214.659 166.5,184.5C 165.945,180.603 164.945,176.937 163.5,173.5C 163.259,168.306 162.593,163.306 161.5,158.5C 161.415,149.106 162.082,139.773 163.5,130.5C 172.207,94.1273 194.207,69.794 229.5,57.5C 234.781,56.0755 240.114,55.2422 245.5,55C 199.969,70.6945 175.302,102.528 171.5,150.5C 173.423,200.589 198.09,233.755 245.5,250C 239.039,249.636 232.706,248.469 226.5,246.5 Z"/></g>
<g><path style="opacity:1" fill="#dfeded" d="M 277.5,61.5 C 293.762,62.1061 308.429,67.6061 321.5,78C 354.926,108.978 364.093,146.145 349,189.5C 335.691,221.562 311.857,239.728 277.5,244C 319.025,234.472 343.525,208.639 351,166.5C 355.372,127.426 341.872,96.2591 310.5,73C 300.349,66.6722 289.349,62.8388 277.5,61.5 Z"/></g>
<g><path style="opacity:1" fill="#fdfdfd" d="M 250.5,89.5 C 286.27,86.7899 310.437,102.123 323,135.5C 329.409,169.845 317.242,195.011 286.5,211C 249.324,222.726 221.491,211.56 203,177.5C 191.047,140.257 202.214,112.423 236.5,94C 241.127,91.9561 245.794,90.4561 250.5,89.5 Z"/></g>
<g><path style="opacity:1" fill="#fe5b61" d="M 250.5,111.5 C 257.833,111.5 265.167,111.5 272.5,111.5C 272.5,121.5 272.5,131.5 272.5,141.5C 282.5,141.5 292.5,141.5 302.5,141.5C 302.5,148.833 302.5,156.167 302.5,163.5C 292.5,163.5 282.5,163.5 272.5,163.5C 272.5,173.5 272.5,183.5 272.5,193.5C 265.167,193.5 257.833,193.5 250.5,193.5C 250.5,183.5 250.5,173.5 250.5,163.5C 240.5,163.5 230.5,163.5 220.5,163.5C 220.5,156.167 220.5,148.833 220.5,141.5C 230.5,141.5 240.5,141.5 250.5,141.5C 250.5,131.5 250.5,121.5 250.5,111.5 Z"/></g>
<g><path style="opacity:1" fill="#fecbcd" d="M 250.5,111.5 C 257.982,110.508 265.648,110.175 273.5,110.5C 273.5,120.5 273.5,130.5 273.5,140.5C 283.348,140.173 293.014,140.506 302.5,141.5C 292.5,141.5 282.5,141.5 272.5,141.5C 272.5,131.5 272.5,121.5 272.5,111.5C 265.167,111.5 257.833,111.5 250.5,111.5 Z"/></g>
<g><path style="opacity:1" fill="#fec9cb" d="M 250.5,111.5 C 250.5,121.5 250.5,131.5 250.5,141.5C 240.5,141.5 230.5,141.5 220.5,141.5C 220.5,148.833 220.5,156.167 220.5,163.5C 230.5,163.5 240.5,163.5 250.5,163.5C 250.5,173.5 250.5,183.5 250.5,193.5C 249.506,184.014 249.173,174.348 249.5,164.5C 239.5,164.5 229.5,164.5 219.5,164.5C 219.5,156.5 219.5,148.5 219.5,140.5C 229.5,140.5 239.5,140.5 249.5,140.5C 249.173,130.652 249.506,120.986 250.5,111.5 Z"/></g>
<g><path style="opacity:1" fill="#4ba49d" d="M 163.5,130.5 C 162.082,139.773 161.415,149.106 161.5,158.5C 159.94,149.033 160.606,139.7 163.5,130.5 Z"/></g>
<g><path style="opacity:1" fill="#fecacc" d="M 302.5,163.5 C 293.014,164.494 283.348,164.827 273.5,164.5C 273.5,174.5 273.5,184.5 273.5,194.5C 265.648,194.825 257.982,194.492 250.5,193.5C 257.833,193.5 265.167,193.5 272.5,193.5C 272.5,183.5 272.5,173.5 272.5,163.5C 282.5,163.5 292.5,163.5 302.5,163.5 Z"/></g>
<g><path style="opacity:1" fill="#6ac9c2" d="M 161.5,158.5 C 162.593,163.306 163.259,168.306 163.5,173.5C 161.855,168.766 161.189,163.766 161.5,158.5 Z"/></g>
<g><path style="opacity:1" fill="#66b9b3" d="M 163.5,173.5 C 164.945,176.937 165.945,180.603 166.5,184.5C 164.432,181.237 163.432,177.57 163.5,173.5 Z"/></g>
<g><path style="opacity:1" fill="#f8fafa" d="M 253.5,292.5 C 258.833,292.5 264.167,292.5 269.5,292.5C 273.909,291.618 277.409,292.952 280,296.5C 280.499,301.155 280.666,305.821 280.5,310.5C 267.833,310.5 255.167,310.5 242.5,310.5C 242.219,305.435 242.552,300.435 243.5,295.5C 246.266,292.857 249.599,291.857 253.5,292.5 Z"/></g>
<g><path style="opacity:1" fill="#fdd198" d="M 242.5,310.5 C 242.5,313.833 242.5,317.167 242.5,320.5C 255.167,320.5 267.833,320.5 280.5,320.5C 288.571,320.137 296.571,320.637 304.5,322C 308.058,323.892 310.558,326.725 312,330.5C 315.044,344.463 309.544,351.463 295.5,351.5C 295.5,352.5 295.5,353.5 295.5,354.5C 300.628,354.112 305.628,354.612 310.5,356C 312.123,358.08 313.623,360.246 315,362.5C 317.001,370.181 315.167,376.681 309.5,382C 303.369,384.163 297.036,385.497 290.5,386C 290.043,386.414 289.709,386.914 289.5,387.5C 293.764,387.769 298.097,387.936 302.5,388C 303.931,388.465 305.097,389.299 306,390.5C 308.444,395.908 309.11,401.574 308,407.5C 306.911,411.186 304.745,414.019 301.5,416C 296.736,416.848 292.069,418.015 287.5,419.5C 293.679,419.5 298.179,422.167 301,427.5C 302.494,435.189 300.327,441.522 294.5,446.5C 277.957,446.072 261.29,446.905 244.5,449C 231.833,449.667 219.167,449.667 206.5,449C 194.831,448.92 184.165,445.753 174.5,439.5C 172.642,437.476 170.975,435.309 169.5,433C 162.174,432.5 154.841,432.334 147.5,432.5C 146.884,406.164 146.217,379.83 145.5,353.5C 151.868,353.83 158.202,353.496 164.5,352.5C 171.906,340.262 181.24,329.762 192.5,321C 208.123,312.708 224.789,309.208 242.5,310.5 Z"/></g>
<g><path style="opacity:1" fill="#696969" d="M 242.5,310.5 C 255.167,310.5 267.833,310.5 280.5,310.5C 280.5,313.833 280.5,317.167 280.5,320.5C 267.833,320.5 255.167,320.5 242.5,320.5C 242.5,317.167 242.5,313.833 242.5,310.5 Z"/></g>
<g><path style="opacity:1" fill="#107986" d="M 9.5,328.5 C 50.4924,333.899 91.4924,339.233 132.5,344.5C 132.5,345.833 132.5,347.167 132.5,348.5C 133.308,379.826 133.641,411.16 133.5,442.5C 133.5,443.833 133.5,445.167 133.5,446.5C 117.167,446.5 100.833,446.5 84.5,446.5C 48.4148,414.356 23.4148,375.023 9.5,328.5 Z"/></g>
<g><path style="opacity:1" fill="#fdfdfd" d="M 132.5,348.5 C 136.833,348.5 141.167,348.5 145.5,348.5C 145.5,350.167 145.5,351.833 145.5,353.5C 146.217,379.83 146.884,406.164 147.5,432.5C 147.5,433.833 147.5,435.167 147.5,436.5C 147.5,438.5 147.5,440.5 147.5,442.5C 142.833,442.5 138.167,442.5 133.5,442.5C 133.641,411.16 133.308,379.826 132.5,348.5 Z"/></g>
<g><path style="opacity:1" fill="#f1ce4f" d="M 112.5,430.5 C 118.82,430.32 121.32,433.32 120,439.5C 116.255,443.566 112.922,443.233 110,438.5C 109.018,435.225 109.851,432.559 112.5,430.5 Z"/></g>
<g><path style="opacity:1" fill="#efce50" d="M 96.5,431.5 C 105.274,431.408 107.274,434.908 102.5,442C 97.3455,443.677 94.3455,441.844 93.5,436.5C 94.0924,434.577 95.0924,432.911 96.5,431.5 Z"/></g>
<g><path style="opacity:1" fill="#eeb97e" d="M 147.5,432.5 C 154.841,432.334 162.174,432.5 169.5,433C 170.975,435.309 172.642,437.476 174.5,439.5C 184.165,445.753 194.831,448.92 206.5,449C 219.167,449.667 231.833,449.667 244.5,449C 261.29,446.905 277.957,446.072 294.5,446.5C 289.823,447.891 285.156,448.891 280.5,449.5C 267.804,450.169 255.137,451.169 242.5,452.5C 227.83,452.667 213.163,452.5 198.5,452C 191.319,451.081 184.319,449.414 177.5,447C 172.419,444.799 168.085,441.632 164.5,437.5C 158.872,436.505 153.206,436.171 147.5,436.5C 147.5,435.167 147.5,433.833 147.5,432.5 Z"/></g>
<g><path style="opacity:1" fill="#666867" d="M 280.5,449.5 C 280.666,453.846 280.499,458.179 280,462.5C 279.167,464.667 277.667,466.167 275.5,467C 265.833,467.667 256.167,467.667 246.5,467C 245.333,465.833 244.167,464.667 243,463.5C 242.501,459.848 242.335,456.182 242.5,452.5C 255.137,451.169 267.804,450.169 280.5,449.5 Z"/></g>
</svg>
